<?xml version="1.0" encoding="UTF-8" standalone="no"?>
<!-- Created with Inkscape (http://www.inkscape.org/) -->
<svg xmlns:svg="http://www.w3.org/2000/svg" xmlns="http://www.w3.org/2000/svg" xmlns:dc="http://purl.org/dc/elements/1.1/" xmlns:cc="http://web.resource.org/cc/" xmlns:rdf="http://www.w3.org/1999/02/22-rdf-syntax-ns#" version="1.0" width="399.00409" height="432.22641" id="svg2">
  <defs id="defs4"/>
  <g transform="translate(-155.4718,-349.07521)" id="layer1">
    <path d="M 173.41088,714.40485 C 187.74921,729.01178 215.01523,718.38907 237.48442,726.16958 C 255.70351,732.4784 264.37344,773.66388 285.56476,766.18538 C 306.75608,758.70689 342.68332,739.29774 366.52768,745.88914 C 390.37205,752.48052 420.07885,797.17152 439.27804,775.34513 C 455.5841,756.80778 463.3823,710.60328 504.16623,715.25847 C 545.07488,719.9279 553.90171,716.80293 548.41125,666.3453 C 545.2263,637.07533 570.6108,612.76701 536.26704,590.04024 C 482.71298,554.60118 397.53818,576.64749 345.933,611.31601 C 286.84132,651.01398 151.86248,692.4528 173.41088,714.40485 z" id="path3282" style="fill:#000000;fill-opacity:0.23529412;fill-rule:evenodd;stroke:none;stroke-width:1px;stroke-linecap:butt;stroke-linejoin:miter;stroke-opacity:1"/>
    <path d="M 497.32204,591.86719 C 497.32204,667.73068 533.11337,687.28769 533.11337,722.47244 C 533.11337,741.98741 497.71488,698.39914 477.8547,708.26501 C 459.4346,717.41549 436.74414,726.05945 413.71077,712.43028 C 399.99391,704.31382 419.12106,691.10203 392.60105,691.10203 C 371.44724,691.10203 339.20793,704.19806 319.03758,707.01933 C 300.70045,709.58419 281.12603,692.83196 248.77442,702.38005 C 228.65539,708.31788 157.4718,750.6539 157.4718,731.13893 C 157.4718,706.2854 190.74504,679.21052 190.74504,591.86719 C 190.74504,507.25194 259.41829,438.57869 344.03354,438.57869 C 428.64879,438.57869 497.32204,507.25194 497.32204,591.86719 z" transform="matrix(1,0,0,1.1622177,0,-158.64871)" id="path2399" style="fill:#dbdbe3;fill-opacity:0.62745098;fill-rule:nonzero;stroke:none;stroke-width:3.71036172;stroke-linecap:round;stroke-linejoin:round;stroke-miterlimit:4;stroke-opacity:1"/>
    <path d="M 497.32204,591.86719 C 497.32204,667.73068 533.11337,687.28769 533.11337,722.47244 C 533.11337,741.98741 484.2296,727.75052 464.36942,737.61639 C 445.94932,746.76687 453.49514,760.55075 426.97423,769.39429 C 407.91997,775.74803 382.51446,746.78065 355.99445,746.78065 C 334.84064,746.78065 295.79756,771.19631 277.46042,763.43608 C 259.12329,755.67585 260.86257,729.82278 232.51096,727.32493 C 211.3519,725.46077 157.4718,750.6539 157.4718,731.13893 C 157.4718,706.2854 190.74504,679.21052 190.74504,591.86719 C 190.74504,507.25194 259.41829,438.57869 344.03354,438.57869 C 428.64879,438.57869 497.32204,507.25194 497.32204,591.86719 z" transform="matrix(1,0,0,1.1622177,0,-158.64871)" id="path2383" style="fill:#dbdbe3;fill-opacity:0.62745098;fill-rule:nonzero;stroke:#000000;stroke-width:3.71036172;stroke-linecap:round;stroke-linejoin:round;stroke-miterlimit:4;stroke-opacity:1"/>
    <path d="M 293.50135,439.04237 C 272.93824,439.04239 256.24999,458.21675 256.24999,481.84374 C 256.25001,505.47072 272.93824,524.64511 293.50135,524.64511 C 309.38964,524.64512 322.96121,513.18452 328.31249,497.08072 C 333.66378,513.18452 347.23533,524.64512 363.12364,524.64511 C 383.68675,524.64511 400.375,505.47072 400.37499,481.84374 C 400.37499,458.21675 383.68674,439.04239 363.12364,439.04237 C 347.23847,439.04237 333.66596,450.46969 328.31249,466.56848 C 322.95902,450.46969 309.38652,439.04237 293.50135,439.04237 z" id="path2387" style="opacity:1;fill:#ffffff;fill-opacity:1;fill-rule:nonzero;stroke:#000000;stroke-width:4;stroke-linecap:round;stroke-linejoin:round;stroke-miterlimit:4;stroke-dasharray:none;stroke-opacity:1"/>
    <path d="M 497.32204,591.86719 A 153.2885,153.2885 0 1 1 190.74504,591.86719 A 153.2885,153.2885 0 1 1 497.32204,591.86719 z" transform="matrix(0.1052247,0,0,0.105654,318.08651,426.67335)" id="path2389" style="opacity:1;fill:#000000;fill-opacity:1;fill-rule:nonzero;stroke:none;stroke-width:55.65716934;stroke-linecap:round;stroke-linejoin:round;stroke-miterlimit:4;stroke-dasharray:none;stroke-opacity:1"/>
    <path d="M 497.32204,591.86719 A 153.2885,153.2885 0 1 1 190.74504,591.86719 A 153.2885,153.2885 0 1 1 497.32204,591.86719 z" transform="matrix(0.1052247,0,0,0.105654,266.90044,426.67335)" id="path2396" style="opacity:1;fill:#000000;fill-opacity:1;fill-rule:nonzero;stroke:none;stroke-width:55.65716934;stroke-linecap:round;stroke-linejoin:round;stroke-miterlimit:4;stroke-dasharray:none;stroke-opacity:1"/>
    <path d="M 444.06306,411.72344 C 449.96553,409.64348 479.66104,448.92802 485.07525,490.21229 C 488.75768,518.29146 487.19657,561.63008 491.43921,586.37881 C 495.68185,611.12755 532.3547,675.36931 517.60216,674.76716 C 482.95393,673.35295 460.85029,617.61774 468.76154,537.90216 C 477.68346,448.00286 430.13643,416.63101 444.06306,411.72344 z" id="path2398" style="fill:#000000;fill-opacity:0.11764706;fill-rule:evenodd;stroke:none;stroke-width:1px;stroke-linecap:butt;stroke-linejoin:miter;stroke-opacity:1"/>
    <path d="M 458.20518,691.03062 C 450.18656,698.88609 435.57777,736.28545 427.7996,719.31489 C 420.02142,702.34432 426.51288,672.124 420.72853,627.391 C 416.3289,593.3667 400.14134,552.76555 412.05087,558.95241 C 423.91885,565.11768 432.54381,583.70296 443.35595,616.0773 C 452.80872,644.38132 467.81201,681.61926 458.20518,691.03062 z" id="path3170" style="fill:#000000;fill-opacity:0.11764706;fill-rule:evenodd;stroke:none;stroke-width:1px;stroke-linecap:butt;stroke-linejoin:miter;stroke-opacity:1"/>
    <path d="M 342.94069,700.4154 C 335.26972,708.61069 316.49729,718.36931 306.99957,716.522 C 294.4883,714.08855 292.56157,672.13357 297.58535,644.86157 C 302.5351,617.99152 312.07188,578.81966 320.0412,572.94379 C 329.73319,565.79778 320.74324,599.71686 329.8341,646.34687 C 336.7903,682.02752 350.4262,692.41825 342.94069,700.4154 z" id="path3172" style="fill:#000000;fill-opacity:0.11764706;fill-rule:evenodd;stroke:none;stroke-width:1px;stroke-linecap:butt;stroke-linejoin:miter;stroke-opacity:1"/>
    <path d="M 240.41631,677.5956 C 229.30863,675.97507 218.80134,678.7358 210.01072,681.13113 C 197.71336,684.482 209.22958,665.97671 225.56706,633.75497 C 237.92281,609.38624 240.82217,584.27111 247.98738,577.43769 C 256.52252,569.29778 245.59992,601.13532 243.57317,632.0626 C 241.69346,660.74609 248.60893,678.79084 240.41631,677.5956 z" id="path3174" style="fill:#000000;fill-opacity:0.11764706;fill-rule:evenodd;stroke:none;stroke-width:1px;stroke-linecap:butt;stroke-linejoin:miter;stroke-opacity:1"/>
    <path d="M 217.08178,459.09959 C 244.41845,385.42958 297.03508,369.96111 310.41988,370.71125 C 330.74674,371.85045 325.14366,401.33498 285.67114,411.72344 C 245.44011,422.31153 202.69915,497.85956 217.08178,459.09959 z" id="path3279" style="fill:#ffffff;fill-opacity:0.62745098;fill-rule:evenodd;stroke:none;stroke-width:1px;stroke-linecap:butt;stroke-linejoin:miter;stroke-opacity:1"/>
  </g>
  <metadata>
    <rdf:RDF>
      <cc:Work>
        <dc:format>image/svg+xml</dc:format>
        <dc:type rdf:resource="http://purl.org/dc/dcmitype/StillImage"/>
        <cc:license rdf:resource="http://creativecommons.org/licenses/publicdomain/"/>
        <dc:publisher>
          <cc:Agent rdf:about="http://openclipart.org/">
            <dc:title>Open Clip Art Library</dc:title>
          </cc:Agent>
        </dc:publisher>
        <dc:title>Cartoon ghost</dc:title>
        <dc:date>2008-07-16T10:39:43</dc:date>
        <dc:description/>
        <dc:source>http://openclipart.org/detail/17847/cartoon-ghost-by-lemmling</dc:source>
        <dc:creator>
          <cc:Agent>
            <dc:title>lemmling</dc:title>
          </cc:Agent>
        </dc:creator>
        <dc:subject>
          <rdf:Bag>
            <rdf:li>cartoon</rdf:li>
            <rdf:li>cartoon</rdf:li>
            <rdf:li>clip art</rdf:li>
            <rdf:li>clipart</rdf:li>
            <rdf:li>ghost</rdf:li>
            <rdf:li>ghost</rdf:li>
            <rdf:li>halloween</rdf:li>
            <rdf:li>halloween</rdf:li>
            <rdf:li>image</rdf:li>
            <rdf:li>media</rdf:li>
            <rdf:li>png</rdf:li>
            <rdf:li>public domain</rdf:li>
            <rdf:li>svg</rdf:li>
          </rdf:Bag>
        </dc:subject>
      </cc:Work>
      <cc:License rdf:about="http://creativecommons.org/licenses/publicdomain/">
        <cc:permits rdf:resource="http://creativecommons.org/ns#Reproduction"/>
        <cc:permits rdf:resource="http://creativecommons.org/ns#Distribution"/>
        <cc:permits rdf:resource="http://creativecommons.org/ns#DerivativeWorks"/>
      </cc:License>
    </rdf:RDF>
  </metadata>
</svg>
